<?xml version="1.0" standalone="no"?>
<!DOCTYPE svg PUBLIC "-//W3C//DTD SVG 20010904//EN"
 "http://www.w3.org/TR/2001/REC-SVG-20010904/DTD/svg10.dtd">
<svg version="1.0" xmlns="http://www.w3.org/2000/svg"
 width="904.000000pt" height="904.000000pt" viewBox="0 0 904.000000 904.000000"
 preserveAspectRatio="xMidYMid meet">

<g transform="translate(0.000000,904.000000) scale(0.100000,-0.100000)"
fill="#000000" stroke="none">
<path d="M7997 7194 c-4 -4 -7 -36 -7 -71 l0 -63 -65 0 -65 0 0 -76 0 -77 -50
6 -50 6 0 -174 0 -175 105 0 105 0 0 -495 0 -495 -90 0 -90 0 0 -85 0 -86
-170 3 -170 3 0 -77 0 -78 -122 0 c-68 0 -174 3 -235 7 l-113 6 0 83 0 83
-107 3 -108 3 -3 93 -3 92 -149 0 -150 0 0 70 0 70 -870 0 -870 0 0 26 0 25
-112 -1 c-62 -1 -132 -1 -155 -1 l-43 1 0 85 0 85 -140 0 -140 0 0 79 c0 91
-5 95 -97 84 l-53 -6 -2 383 -3 384 -67 -3 -68 -2 0 75 0 76 -255 0 c-140 0
-258 1 -262 3 -5 1 -9 -31 -11 -70 l-3 -73 -124 0 -125 0 0 -80 0 -80 -357 -2
c-197 -1 -383 -3 -413 -4 -30 -1 -220 1 -422 4 l-368 5 0 74 0 73 -126 0 -125
0 2 78 2 77 -281 3 -282 2 0 -535 0 -535 73 0 72 0 0 447 0 448 83 3 82 3 0
-74 0 -74 160 -8 160 -7 0 -69 0 -68 78 -3 77 -3 0 -155 0 -155 -82 -3 -83 -3
0 -84 0 -85 70 0 70 0 0 -110 0 -110 75 0 75 0 0 -175 0 -175 70 0 70 0 0
-125 0 -125 -63 0 -64 0 2 -47 c1 -27 2 -92 3 -146 l2 -98 263 1 c144 0 297 0
339 0 l77 0 3 -77 3 -78 74 -5 74 -5 -2 -82 -2 -83 130 0 c131 0 182 9 180 32
0 10 -2 10 -6 1 -7 -19 -73 -28 -84 -12 -8 12 -10 12 -18 0 -6 -9 -16 -11 -27
-6 -18 7 -18 8 1 15 l20 8 -20 4 c-12 3 -9 5 8 3 15 -1 27 2 27 6 0 9 -26 19
-52 19 -27 0 -18 23 13 31 23 7 23 7 2 8 -31 1 -29 17 2 23 17 4 25 1 25 -9 0
-8 4 -12 9 -8 5 3 12 -3 14 -12 4 -14 5 -13 6 5 0 12 -5 22 -11 22 -9 0 -8 3
2 10 10 6 -21 10 -95 13 -86 2 -76 3 45 4 89 0 140 -3 120 -7 -36 -8 -32 -14
8 -10 21 1 22 -2 22 -69 l0 -71 53 0 53 0 -4 -60 -4 -60 61 0 61 0 2 -42 c1
-24 2 -53 2 -65 l0 -23 226 -2 c124 -2 271 -2 328 0 l102 2 0 -100 0 -100 -49
0 c-47 0 -50 2 -53 28 -3 25 -7 28 -58 34 -30 3 -106 6 -167 7 l-113 1 0 -30
c0 -29 2 -30 45 -30 l45 0 0 -50 0 -50 49 0 c44 0 50 -3 53 -22 3 -20 10 -24
58 -28 l55 -5 3 -42 c3 -43 3 -43 43 -43 39 0 39 0 39 -40 0 -39 1 -40 35 -40
33 0 35 -2 35 -36 l0 -35 -42 3 c-40 3 -43 5 -46 36 -3 29 -6 32 -38 32 -30 0
-34 3 -34 25 0 24 -3 25 -54 25 l-53 0 -7 41 -6 40 -44 -6 c-41 -7 -45 -5 -48
16 -2 19 -10 25 -38 27 -75 6 -75 6 -72 67 l4 55 -153 0 c-84 0 -149 -3 -145
-7 3 -4 46 -7 94 -6 73 0 79 -1 37 -7 l-50 -7 45 -1 c25 -1 59 2 76 7 29 8 31
7 27 -13 -3 -12 -1 -17 4 -11 15 19 38 11 41 -15 3 -34 -50 -60 -123 -60 -30
0 -55 -4 -55 -10 0 -6 -27 -10 -60 -10 l-61 0 7 75 7 75 -119 0 -120 0 4 -40
4 -40 49 0 49 0 0 -50 0 -50 35 0 c34 0 35 -1 35 -40 0 -39 1 -40 35 -40 31 0
35 -3 41 -34 8 -47 0 -56 -52 -56 l-44 0 0 39 c0 36 -2 39 -35 45 -34 7 -35 8
-35 51 l0 45 -45 0 c-45 0 -45 0 -45 -35 l0 -35 -107 0 c-60 -1 -245 -3 -413
-6 -168 -3 -342 -3 -387 1 l-83 7 0 74 0 74 -164 0 -163 0 -7 -40 -6 -40 -55
-1 c-30 -1 -65 -2 -77 -2 -20 -1 -23 4 -26 45 l-3 47 83 3 83 3 3 53 3 52
-155 0 c-147 0 -156 -1 -156 -19 0 -11 -7 -26 -15 -35 -9 -9 -15 -33 -15 -65
l0 -50 -83 -3 -82 -3 -3 -55 c-1 -30 1 -60 5 -66 5 -7 38 -9 95 -6 l86 4 7 34
6 34 74 0 75 0 0 -40 c0 -22 -4 -40 -10 -40 -5 0 -10 -22 -10 -50 l0 -50 80 0
80 0 0 -50 0 -50 175 0 175 0 0 -160 0 -160 100 0 99 0 3 -82 3 -83 65 0 65 0
3 169 2 169 203 -4 c111 -2 331 -3 489 -1 l286 2 4 55 c1 30 1 60 0 65 -5 14
-70 12 -74 -2 -3 -7 -7 -5 -11 6 -4 10 -3 15 3 11 6 -4 10 22 10 69 l0 76 40
0 c38 0 40 -1 40 -32 0 -18 3 -50 6 -70 6 -36 8 -38 45 -38 l39 0 0 -115 c0
-96 3 -115 15 -115 10 0 15 11 15 35 l0 35 60 0 60 0 0 71 c0 62 -2 72 -20 76
-16 4 -20 15 -22 67 l-3 61 -35 5 c-34 5 -35 6 -35 49 l0 45 -52 -3 -53 -2 0
70 0 71 61 0 62 0 -7 -70 -6 -70 45 0 45 0 0 -40 c0 -39 1 -40 35 -40 l35 0 0
-50 0 -50 40 -6 c44 -7 53 -21 18 -26 -21 -3 -23 -9 -26 -75 l-3 -73 101 0
100 0 1 43 c2 79 17 -9 18 -110 l1 -93 -60 0 -60 0 0 -39 c0 -21 -3 -58 -6
-82 l-6 -45 -64 4 -64 4 0 -66 0 -66 -65 0 -65 0 0 -62 c0 -35 -3 -107 -7
-161 l-6 -97 -411 2 -411 3 -3 163 -3 164 -69 -7 -70 -7 0 61 0 62 -77 -3 -78
-3 -3 -227 -2 -228 65 0 65 0 0 -62 c0 -108 0 -108 92 -108 l79 0 -3 -83 -3
-82 -77 -3 -78 -3 0 -209 0 -210 -75 0 -75 0 0 -58 0 -58 -59 4 -59 4 -6 -63
c-12 -135 -12 -239 1 -234 7 2 13 0 13 -6 0 -7 13 -9 35 -5 30 6 34 5 29 -11
-3 -10 2 -7 10 7 l15 25 1 -42 c0 -23 -5 -43 -12 -45 -7 -3 -8 -10 -4 -17 6
-9 53 -12 190 -11 146 1 397 -8 651 -24 17 -1 34 1 40 3 21 10 54 9 52 -2 -1
-7 6 -12 16 -11 59 3 68 5 61 15 -4 8 8 10 40 8 55 -5 62 8 9 14 -21 3 14 3
77 0 63 -2 261 -5 440 -5 226 -1 287 -3 200 -8 l-125 -6 117 -2 c72 -1 127 2
143 10 23 10 25 17 25 69 l0 58 53 3 52 3 3 88 3 88 77 -3 77 -3 -3 230 -3
231 70 -4 71 -4 0 86 0 86 65 0 65 0 0 50 0 50 299 0 c277 0 300 -1 304 -17 3
-10 6 -98 6 -196 l1 -177 -75 0 -75 0 0 -55 0 -55 -80 0 -80 0 0 -40 0 -40
-84 0 -84 0 -1 -150 -1 -150 76 0 c64 0 75 -2 70 -15 -3 -8 -1 -15 4 -15 6 0
10 -11 10 -25 l0 -25 308 -1 c226 -1 286 -4 228 -10 -43 -5 -81 -11 -84 -14
-4 -3 25 -3 63 0 51 5 66 4 55 -4 -9 -7 -10 -11 -3 -11 6 0 15 5 18 10 4 6 24
10 45 8 52 -3 70 15 70 68 l0 44 38 0 c20 0 51 -4 68 -9 54 -15 64 -1 64 89
l0 80 54 0 c30 0 58 -4 61 -10 3 -5 11 -10 16 -10 6 0 8 4 5 9 -4 5 -1 11 5
13 7 2 11 52 10 156 l-2 152 127 0 127 0 -5 137 c-3 76 -3 144 -1 151 3 8 36
12 114 12 l109 0 0 -76 0 -76 70 4 69 3 3 -65 3 -65 83 -3 82 -3 0 -58 c0 -68
-3 -71 -91 -71 l-59 0 0 -50 0 -50 -49 0 -49 0 -7 -82 c-10 -120 -3 -214 14
-210 8 2 11 -3 8 -12 -6 -14 4 -15 58 -6 6 1 -1 6 -15 10 -24 8 -23 8 8 9 l32
1 0 -54 0 -55 153 -5 c83 -2 172 -7 197 -11 33 -4 41 -3 30 4 -11 8 69 11 270
12 157 1 265 5 240 9 -25 4 -38 8 -30 9 10 1 11 4 4 9 -14 9 -24 50 -17 68 4
10 24 14 72 14 63 0 69 2 79 25 14 31 15 46 2 25 -6 -10 -10 482 -10 1398 l0
1413 208 -1 207 -2 3 66 3 66 144 0 145 0 0 80 0 79 158 3 157 3 3 88 3 87 84
0 85 0 0 80 0 80 80 0 80 0 0 136 0 135 70 -7 70 -7 0 591 0 591 -67 3 -68 3
-3 98 -3 97 -48 0 c-57 0 -61 6 -61 90 l0 59 -57 3 -58 3 3 73 2 72 -54 0 -55
0 -3 68 -3 67 -181 3 c-99 1 -183 -1 -187 -4z m-4317 -369 l0 -75 75 0 75 0 0
-267 c0 -148 -3 -285 -7 -307 l-6 -39 -99 5 c-78 4 -98 2 -94 -8 3 -7 -1 -14
-7 -16 -9 -2 -6 -9 6 -21 18 -18 19 -18 12 2 -4 14 -2 21 7 21 10 0 9 3 -2 10
-13 8 -12 10 3 10 15 0 18 -7 16 -34 -2 -19 0 -38 4 -42 4 -4 7 -18 7 -30 0
-22 4 -23 78 -26 l77 -3 3 -87 3 -88 -86 0 -85 0 0 -80 0 -80 -230 0 -229 0
-3 -127 -3 -128 -443 0 -442 0 0 -62 0 -63 -79 0 -79 0 -7 104 c-10 145 -9
146 76 146 l69 0 0 110 0 110 59 0 58 0 7 60 7 60 69 0 70 0 0 -162 0 -163
265 3 265 3 0 174 0 175 -60 0 -59 0 -7 34 c-3 19 -4 172 -2 340 l3 306 118 0
117 0 0 -140 0 -140 78 0 77 0 -3 -70 c-3 -67 9 -95 21 -49 3 12 10 18 16 14
6 -3 11 -1 11 4 0 6 -7 11 -16 11 -22 0 -16 95 6 95 8 1 18 -4 22 -9 3 -5 17
-10 30 -11 18 -1 24 -9 29 -36 5 -26 7 -20 8 29 1 61 0 63 -21 58 -25 -7 24
18 55 28 11 4 17 16 17 36 0 23 4 30 20 30 16 0 20 7 20 35 0 21 -5 35 -12 36
-7 0 -3 4 10 9 16 7 22 17 21 37 -4 64 -2 66 41 59 l40 -6 0 75 0 75 -95 0
-95 0 0 -65 0 -65 -70 0 -70 0 0 60 0 60 65 0 65 0 0 68 c0 38 3 72 7 75 3 4
51 7 105 7 l98 0 0 -75z m-1568 -127 l1 -43 4 43 4 42 75 0 74 0 0 -330 0
-330 -65 0 -65 0 0 -100 0 -100 -75 0 -75 0 0 430 0 430 60 0 60 0 2 -42z
m361 35 c-7 -2 -19 -2 -25 0 -7 3 -2 5 12 5 14 0 19 -2 13 -5z m50 0 c-7 -2
-19 -2 -25 0 -7 3 -2 5 12 5 14 0 19 -2 13 -5z m169 -80 l-3 -88 -80 -3 c-44
-1 -78 1 -75 6 3 5 6 45 7 90 l2 82 76 0 76 0 -3 -87z m648 -103 c0 -33 -3
-60 -7 -60 -5 -1 -34 -3 -65 -7 l-58 -5 0 66 0 66 65 0 65 0 0 -60z m-1617 13
c-18 -2 -48 -2 -65 0 -18 2 -4 4 32 4 36 0 50 -2 33 -4z m1707 -188 c0 -19 -5
-35 -11 -35 -5 0 -8 4 -5 9 4 5 2 21 -4 35 -7 21 -6 26 5 26 10 0 15 -11 15
-35z m4707 -117 c-2 -29 -3 -8 -3 47 0 55 1 79 3 53 2 -26 2 -71 0 -100z
m-4731 111 c3 -6 -1 -18 -10 -27 -15 -15 -16 -15 -16 1 0 12 -4 16 -12 11 -9
-5 -9 -2 1 9 16 20 27 22 37 6z m4731 -246 c-3 -10 -5 -4 -5 12 0 17 2 24 5
18 2 -7 2 -21 0 -30z m0 -125 c-2 -18 -4 -6 -4 27 0 33 2 48 4 33 2 -15 2 -42
0 -60z m-5754 -125 c-13 -2 -33 -2 -45 0 -13 2 -3 4 22 4 25 0 35 -2 23 -4z
m560 -180 c-13 -2 -35 -2 -50 0 -16 2 -5 4 22 4 28 0 40 -2 28 -4z m430 -40
l-152 -4 -4 -37 -4 -37 -1 43 -2 42 158 -2 157 -2 -152 -3z m258 -10 c0 -15 2
-15 9 2 6 14 9 4 9 -37 l1 -57 -187 0 c-137 0 -180 3 -158 10 17 6 68 8 115 5
86 -6 155 3 132 18 -14 8 1 28 28 39 12 4 11 6 -3 6 -15 1 -16 3 -5 16 19 21
58 19 59 -2z m1799 -113 l0 -69 93 -3 92 -3 3 -82 3 -83 57 -1 c31 0 81 0 110
1 l52 1 0 -85 0 -86 -50 0 -50 0 0 -995 0 -995 -349 0 c-309 0 -350 2 -355 16
-3 9 -6 497 -6 1084 l0 1069 -57 3 -58 3 1 138 c1 75 4 143 7 150 3 9 63 11
256 9 l251 -3 0 -69z m1103 -80 l82 0 -3 -85 -3 -85 60 0 61 0 2 83 2 82 3
-82 4 -83 59 0 60 0 0 -75 0 -74 -57 -3 -58 -3 0 -1165 0 -1165 117 2 117 1 3
-179 3 -179 -252 0 -253 0 0 103 c0 65 -4 97 -9 88 -14 -22 -43 5 -36 33 6 21
6 21 -9 2 -11 -14 -13 -22 -5 -26 11 -7 -37 -20 -72 -20 -17 0 -19 9 -19 88 0
48 5 94 11 102 8 12 9 10 4 -7 -4 -14 -2 -23 5 -23 6 0 9 -4 5 -9 -3 -5 -1
-12 5 -16 5 -3 10 1 10 9 0 9 5 16 10 16 15 0 12 -26 -5 -40 -12 -10 -12 -14
0 -26 7 -8 21 -14 29 -14 18 0 22 25 6 35 -5 3 -10 17 -10 31 0 21 4 24 40 24
53 0 51 16 -2 25 l-43 7 29 10 c21 8 25 13 15 19 -11 6 -11 11 -2 20 14 14 6
39 -14 39 -8 0 -21 7 -29 15 -19 19 -38 11 -51 -23 -11 -27 -11 -26 -12 12
l-1 38 52 -5 c29 -3 54 -11 56 -16 2 -6 11 -11 20 -11 15 1 15 2 0 11 -24 14
-22 27 5 32 12 2 -41 5 -119 6 l-141 1 -6 803 c-4 441 -4 963 -1 1160 l6 357
-61 0 -61 0 0 80 0 80 -84 0 c-46 0 -98 3 -115 6 l-31 7 0 68 0 69 298 2 297
3 3 -77 3 -78 82 0z m-1686 143 c-20 -2 -52 -2 -70 0 -17 2 0 4 38 4 39 0 53
-2 32 -4z m-1 -50 c-15 -4 -16 -7 -5 -14 10 -6 10 -9 2 -9 -7 0 -13 -8 -13
-17 -1 -16 -2 -16 -15 1 -24 32 -18 46 18 45 19 -1 25 -3 13 -6z m3151 -25
c-3 -7 -5 -2 -5 12 0 14 2 19 5 13 2 -7 2 -19 0 -25z m-3174 -108 c-4 -48 -2
-70 5 -70 6 0 13 23 15 53 l3 52 2 -57 c2 -44 -1 -58 -12 -58 -8 0 -17 -8 -19
-17 -7 -28 -8 100 -1 136 11 51 13 35 7 -39z m1865 23 c-10 -2 -28 -2 -40 0
-13 2 -5 4 17 4 22 1 32 -1 23 -4z m-20 -51 c-18 -2 -28 -10 -31 -25 -3 -16
-5 -14 -6 9 -1 29 0 30 32 25 31 -5 31 -6 5 -9z m-951 -14 c-3 -8 -6 -5 -6 6
-1 11 2 17 5 13 3 -3 4 -12 1 -19z m2100 -45 c-2 -16 -4 -5 -4 22 0 28 2 40 4
28 2 -13 2 -35 0 -50z m-5172 -60 c-9 -76 -13 -83 -45 -83 -34 0 -40 -13 -41
-93 0 -50 -2 -57 -10 -38 -7 19 -12 22 -21 13 -9 -9 -17 -7 -34 9 -38 35 -15
67 44 60 6 -1 12 3 12 9 0 5 -6 10 -12 11 -7 0 -27 2 -44 3 l-30 3 -3 -78 -2
-79 171 0 170 0 0 133 c0 72 4 137 8 143 4 6 25 10 47 9 22 -1 46 3 53 8 9 7
12 -16 12 -111 0 -66 -4 -132 -10 -147 -6 -17 -26 -33 -54 -46 -30 -13 -46
-26 -48 -41 -4 -31 -31 -36 -205 -37 l-153 -1 0 205 0 205 101 0 101 0 -7 -57z
m2205 47 c0 -5 -5 -10 -11 -10 -5 0 -7 5 -4 10 3 6 8 10 11 10 2 0 4 -4 4 -10z
m3337 -32 c-3 -7 -5 -2 -5 12 0 14 2 19 5 13 2 -7 2 -19 0 -25z m-3256 -44
l-9 -39 -1 50 c-1 33 2 46 9 39 7 -7 7 -24 1 -50z m-3017 38 c-12 -8 -14 -53
-2 -46 4 3 8 1 8 -4 0 -6 -8 -13 -17 -17 -17 -6 -17 -7 1 -21 19 -14 19 -14
-2 -14 -20 0 -22 5 -22 55 0 50 2 55 23 55 12 0 17 -4 11 -8z m73 -174 c-2
-35 -3 -7 -3 62 0 69 1 97 3 63 2 -35 2 -91 0 -125z m1142 161 c-19 -12 -41
-29 -47 -40 -15 -24 -11 -24 18 1 25 22 40 19 22 -3 -7 -8 -9 -17 -5 -20 3 -4
-3 -7 -15 -7 -12 0 -22 -4 -22 -10 0 -5 -9 -10 -20 -10 -11 0 -20 -5 -20 -10
0 -7 15 -9 38 -6 l37 5 -40 -13 -40 -13 68 -4 67 -4 0 75 0 75 250 3 250 3 0
-146 0 -145 -242 0 c-134 0 -287 -3 -340 -7 l-98 -6 0 86 c0 55 4 87 11 87 15
0 39 26 31 34 -3 4 1 4 10 1 11 -4 17 1 22 19 6 24 69 76 91 76 5 0 -6 -10
-26 -21z m-982 -176 c-2 -32 -3 -6 -3 57 0 63 1 89 3 58 2 -32 2 -84 0 -115z
m-390 125 c-3 -7 -5 -2 -5 12 0 14 2 19 5 13 2 -7 2 -19 0 -25z m143 -58 c0
-5 -2 -10 -4 -10 -3 0 -8 5 -11 10 -3 6 -1 10 4 10 6 0 11 -4 11 -10z m5068
-107 l-2 -108 -3 103 -4 102 -42 -1 c-33 -1 -37 -2 -17 -8 l24 -7 -21 -15
c-16 -11 -23 -28 -26 -65 -2 -37 -4 -30 -5 29 l-2 77 50 0 50 0 -2 -107z
m-5078 77 c-9 -6 -39 -8 -72 -4 l-57 6 -4 -34 -4 -33 -1 38 -2 37 78 0 c55 0
73 -3 62 -10z m1140 -454 c0 -2 -9 -6 -20 -9 -11 -3 -20 -1 -20 4 0 5 9 9 20
9 11 0 20 -2 20 -4z m353 -3 c-62 -2 -165 -2 -230 0 -65 1 -14 3 112 3 127 0
180 -2 118 -3z m155 -95 c-1 -107 -6 -95 -10 30 -2 39 0 72 5 72 4 0 6 -46 5
-102z m-541 25 c-3 -10 -5 -2 -5 17 0 19 2 27 5 18 2 -10 2 -26 0 -35z m933
-153 l0 -31 -57 3 c-55 3 -58 4 -61 31 -3 27 -3 27 57 27 l61 0 0 -30z m-527
-7 c-23 -2 -64 -2 -90 0 -26 2 -7 3 42 3 50 0 71 -1 48 -3z m3444 -70 c-3 -10
-5 -4 -5 12 0 17 2 24 5 18 2 -7 2 -21 0 -30z m150 15 c-3 -8 -6 -5 -6 6 -1
11 2 17 5 13 3 -3 4 -12 1 -19z m80 -75 c-2 -16 -4 -5 -4 22 0 28 2 40 4 28 2
-13 2 -35 0 -50z m-3267 -123 l0 -50 55 0 55 0 0 -35 0 -35 49 0 50 0 3 -37
c3 -36 5 -38 38 -38 33 0 35 -2 38 -37 3 -37 4 -38 43 -38 38 0 39 -1 39 -35
0 -34 1 -35 39 -35 l40 0 3 -52 3 -53 68 -3 67 -3 0 -37 c0 -20 3 -61 6 -89
l7 -53 -40 0 c-36 0 -41 3 -46 28 -4 20 -16 31 -47 44 -31 13 -45 26 -58 56
-9 22 -26 43 -37 48 -16 7 -21 20 -23 61 -3 50 -4 52 -35 55 -28 3 -32 7 -35
36 -3 30 -6 32 -43 32 -35 0 -39 3 -39 24 0 23 -5 25 -47 28 l-48 3 -3 43 -3
42 -44 0 c-42 0 -44 1 -47 33 l-3 32 -76 3 -76 3 -6 47 c-3 26 -3 50 0 54 2 5
38 8 79 8 l74 0 0 -50z m-40 -380 c0 -22 5 -40 10 -40 6 0 15 -11 20 -24 6
-17 18 -26 37 -28 28 -3 28 -4 27 -70 0 -68 0 -68 28 -68 15 0 29 -3 29 -7 1
-8 7 -95 8 -125 1 -14 10 -18 41 -18 l40 0 0 -217 c0 -120 -4 -223 -8 -229 -4
-7 -28 -9 -64 -6 l-58 4 0 203 c0 194 -1 203 -20 208 -18 4 -20 14 -20 75 l0
70 -35 6 -35 7 0 74 c0 73 0 74 -27 77 -22 2 -29 9 -33 33 -3 17 -8 28 -11 25
-12 -10 -39 24 -39 50 0 36 6 40 62 40 l48 0 0 -40z m-1780 -84 c6 -8 19 -17
28 -19 9 -2 7 -3 -5 -2 -22 2 -23 -2 -23 -56 l0 -59 -85 0 -85 0 0 75 0 75 79
0 c56 0 82 -4 91 -14z m3093 -613 c-7 -2 -21 -2 -30 0 -10 3 -4 5 12 5 17 0
24 -2 18 -5z m-23 -32 c0 -5 10 -12 23 -14 19 -4 19 -4 -5 -6 -22 -1 -27 -6
-31 -33 -3 -25 -4 -22 -5 15 -1 26 3 47 8 47 6 0 10 -4 10 -9z m-1182 -528 l2
-423 -197 1 c-109 0 -192 3 -185 6 9 3 12 64 11 256 0 139 -3 246 -6 240 -5
-15 -51 -17 -71 -4 -11 7 -11 9 1 14 21 8 28 95 7 92 -10 -1 -17 -17 -20 -46
-3 -30 -10 -44 -20 -44 -12 0 -15 16 -15 83 -1 45 3 82 7 82 4 0 8 -4 8 -9 0
-5 20 -5 46 0 25 5 48 8 52 8 4 -1 39 -1 77 0 l70 1 -3 71 c-2 38 -1 77 2 85
5 12 26 14 118 12 l113 -3 3 -422z m1961 347 l-2 -80 -158 0 -159 0 0 -85 0
-85 -359 0 -360 0 -3 86 c-2 47 -1 88 1 90 2 2 56 4 120 4 l116 0 -3 75 -4 75
407 0 406 0 -2 -80z m-2556 -97 c-23 -4 -33 -23 -13 -23 6 0 10 -12 9 -27 l-1
-28 -9 25 c-6 17 -7 6 -4 -35 3 -33 5 -64 4 -70 0 -5 -2 -66 -3 -135 -1 -69
-1 -82 1 -30 3 65 7 90 13 80 7 -10 10 -11 10 -2 0 6 7 12 15 12 12 0 15 -14
15 -67 0 -83 14 -113 28 -62 8 25 10 -26 11 -194 1 -125 4 -226 9 -226 4 1 40
1 80 0 l72 -1 0 -60 0 -60 55 0 55 0 0 -125 0 -125 -265 0 -265 0 0 71 0 70
-27 -3 c-26 -3 -28 -7 -37 -70 l-8 -68 -54 0 -54 0 0 125 0 125 90 0 90 0 0
61 0 60 73 -2 72 -2 3 396 2 397 28 -1 c23 -2 24 -2 5 -6z m43 -153 c8 0 14 8
14 18 0 9 4 23 9 31 7 10 9 -2 8 -37 0 -29 -4 -52 -9 -52 -4 0 -8 6 -8 14 0 7
-9 16 -20 19 -17 4 -20 13 -18 49 l1 43 4 -42 c3 -29 9 -43 19 -43z m81 -26
c-3 -3 -12 -4 -19 -1 -8 3 -5 6 6 6 11 1 17 -2 13 -5z m3641 -171 c-10 -2 -26
-2 -35 0 -10 3 -2 5 17 5 19 0 27 -2 18 -5z m-3671 -405 c-3 -8 -6 -5 -6 6 -1
11 2 17 5 13 3 -3 4 -12 1 -19z m490 -30 c-3 -7 -5 -2 -5 12 0 14 2 19 5 13 2
-7 2 -19 0 -25z m-1577 -53 c0 -30 -3 -55 -8 -55 -4 0 -7 25 -7 55 0 30 3 55
8 55 4 0 7 -25 7 -55z m147 -7 c-2 -13 -4 -5 -4 17 -1 22 1 32 4 23 2 -10 2
-28 0 -40z m4613 -125 l-5 -178 -185 0 -185 0 -5 65 c-5 61 -7 65 -31 68 -31
4 -39 -15 -39 -90 l0 -48 -110 0 -111 0 3 128 3 127 60 1 c33 1 97 2 143 3
l82 1 0 50 0 50 193 0 192 0 -5 -177z m-4492 -50 l-3 -128 -197 -3 -197 -2 -5
42 c-3 24 -7 54 -8 68 -2 17 -10 26 -25 28 -21 3 -22 -1 -25 -65 l-3 -68 -55
0 -55 0 -3 122 -3 123 248 3 c136 1 267 3 291 5 l43 2 -3 -127z m2701 111
l133 -6 -6 -30 c-3 -17 -6 -61 -6 -99 l0 -69 -157 0 c-87 0 -195 3 -240 7 -81
6 -83 7 -83 32 0 56 -10 71 -46 71 l-34 0 0 -50 0 -50 -39 0 c-22 0 -46 -3
-55 -6 -14 -5 -16 8 -16 102 l0 109 207 -2 c115 -2 268 -6 342 -9z m-2498
-272 c25 -10 33 -41 16 -58 -13 -13 -7 -32 11 -37 9 -3 1 -3 -18 -2 -19 2 -41
4 -47 4 -9 1 -13 19 -13 55 0 57 2 59 51 38z m3946 -98 c-3 -3 -12 -4 -19 -1
-8 3 -5 6 6 6 11 1 17 -2 13 -5z"/>
<path d="M3660 6571 c0 -16 -6 -32 -12 -34 -8 -3 -6 -6 5 -6 13 -1 17 7 17 34
0 19 -2 35 -5 35 -3 0 -5 -13 -5 -29z"/>
<path d="M3450 6210 c-13 -8 -13 -10 2 -10 11 0 15 -5 12 -15 -4 -8 -1 -15 5
-15 6 0 11 11 11 25 0 27 -7 30 -30 15z"/>
<path d="M3518 6143 c7 -3 16 -2 19 1 4 3 -2 6 -13 5 -11 0 -14 -3 -6 -6z"/>
<path d="M3598 5643 c6 -2 10 -9 6 -14 -3 -5 0 -9 5 -9 6 0 11 7 11 15 0 8 -8
15 -17 14 -11 0 -13 -3 -5 -6z"/>
<path d="M6380 2644 c0 -8 5 -12 10 -9 6 3 10 10 10 16 0 5 -4 9 -10 9 -5 0
-10 -7 -10 -16z"/>
<path d="M3394 2704 c-4 -14 -2 -35 3 -47 9 -19 11 -15 14 26 4 50 -6 64 -17
21z"/>
<path d="M3502 2680 c0 -14 2 -19 5 -12 2 6 2 18 0 25 -3 6 -5 1 -5 -13z"/>
<path d="M3448 2623 c7 -3 16 -2 19 1 4 3 -2 6 -13 5 -11 0 -14 -3 -6 -6z"/>
<path d="M3271 2224 c0 -11 3 -14 6 -6 3 7 2 16 -1 19 -3 4 -6 -2 -5 -13z"/>
<path d="M3262 2165 c0 -16 2 -22 5 -12 2 9 2 23 0 30 -3 6 -5 -1 -5 -18z"/>
<path d="M3280 2150 c0 -5 5 -10 10 -10 6 0 10 5 10 10 0 6 -4 10 -10 10 -5 0
-10 -4 -10 -10z"/>
<path d="M3270 2070 c13 -9 13 -10 0 -10 -13 0 -13 -1 0 -10 12 -8 12 -10 1
-10 -8 0 -12 -2 -9 -5 3 -3 16 -2 28 3 17 6 20 11 11 17 -11 6 -10 9 0 16 10
6 5 9 -16 9 -23 0 -27 -3 -15 -10z"/>
<path d="M1167 6463 c-4 -3 -7 -39 -7 -80 l0 -73 74 0 73 0 1 80 1 80 -68 0
c-37 0 -71 -3 -74 -7z"/>
<path d="M1323 5928 l1 -173 6 125 c3 69 7 103 8 76 2 -51 14 -53 26 -4 4 17
1 28 -7 31 -9 4 -9 8 2 15 8 6 11 17 7 28 -6 16 -8 16 -22 -2 -14 -18 -15 -16
-11 29 3 26 1 47 -3 47 -5 0 -8 -78 -7 -172z"/>
<path d="M1388 6093 l43 -4 -6 -72 c-3 -40 -2 -85 4 -102 7 -23 9 -6 10 78 l1
107 -47 -2 -48 -1 43 -4z"/>
<path d="M690 5632 l0 -201 -77 -3 -78 -3 -3 -487 -2 -488 80 0 80 0 0 -112 0
-113 69 3 70 4 3 36 3 37 81 0 81 -1 7 90 c3 49 6 133 6 188 l0 98 235 0 235
0 0 80 0 80 70 0 70 0 0 75 0 75 -44 0 c-44 0 -45 0 -48 -37 l-3 -38 -110 -3
c-141 -4 -149 -1 -161 45 -8 35 -12 38 -47 41 l-38 3 8 47 c4 26 7 97 8 157
l0 110 103 3 102 3 0 -66 0 -65 -35 0 c-45 0 -55 -20 -55 -108 l0 -69 53 -7
c28 -3 77 -6 108 -6 l56 0 7 46 c3 26 6 93 6 150 l0 104 35 0 35 0 0 59 0 58
-289 -5 c-159 -3 -298 -1 -308 3 -10 5 -22 7 -27 6 -21 -5 -66 12 -66 24 0 17
-20 30 -29 19 -18 -26 -31 -12 -31 36 l0 49 78 3 77 3 -3 130 c-2 71 -4 130
-5 131 -1 1 -71 5 -154 9 l-153 7 0 -200z m27 -228 c-3 -3 -12 -4 -19 -1 -8 3
-5 6 6 6 11 1 17 -2 13 -5z m-20 -46 c-3 -8 -6 -5 -6 6 -1 11 2 17 5 13 3 -3
4 -12 1 -19z m313 -163 l0 -84 73 -3 72 -3 3 -128 3 -129 -73 5 c-99 7 -177 8
-215 1 l-33 -6 0 216 0 216 85 0 85 0 0 -85z m-313 -302 c-3 -10 -5 -4 -5 12
0 17 2 24 5 18 2 -7 2 -21 0 -30z m328 -63 c3 -5 1 -10 -4 -10 -6 0 -11 5 -11
10 0 6 2 10 4 10 3 0 8 -4 11 -10z"/>
<path d="M965 5110 c3 -5 11 -10 16 -10 6 0 7 5 4 10 -3 6 -11 10 -16 10 -6 0
-7 -4 -4 -10z"/>
<path d="M1063 5093 c15 -2 37 -2 50 0 12 2 0 4 -28 4 -27 0 -38 -2 -22 -4z"/>
<path d="M1436 5725 c-4 -14 -4 -31 0 -36 4 -7 -15 -10 -52 -9 -33 1 -97 1
-144 1 l-85 -1 3 -60 4 -60 61 -1 c34 0 70 -2 80 -4 14 -3 17 4 17 46 l0 49
65 0 65 0 0 50 c0 55 -5 63 -14 25z"/>
<path d="M1053 5673 c9 -2 25 -2 35 0 9 3 1 5 -18 5 -19 0 -27 -2 -17 -5z"/>
<path d="M1740 4730 l0 -70 60 0 60 0 0 -154 c0 -85 3 -161 6 -170 5 -12 21
-16 70 -16 l64 0 0 154 c0 85 3 161 6 170 5 13 22 16 79 16 l73 0 6 31 c3 17
3 49 0 70 l-7 39 -208 0 -209 0 0 -70z"/>
<path d="M3550 4351 l0 -50 43 2 c38 2 42 5 45 30 2 15 -1 27 -7 27 -6 0 -11
-5 -11 -10 0 -6 -8 -5 -20 2 -17 11 -22 10 -30 -2 -8 -12 -10 -9 -10 12 0 14
6 29 13 31 7 3 5 6 -5 6 -15 1 -18 -8 -18 -48z"/>
<path d="M1768 4303 c18 -2 45 -2 60 0 15 2 0 4 -33 4 -33 0 -45 -2 -27 -4z"/>
<path d="M2185 4210 c10 -11 21 -17 24 -12 3 4 16 7 29 6 33 -2 27 13 -9 20
-57 11 -64 9 -44 -14z"/>
<path d="M1656 4204 c-3 -9 -6 -27 -6 -41 0 -23 3 -24 33 -18 36 8 49 22 43
48 -2 9 0 15 5 11 5 -3 9 0 9 5 0 18 -77 13 -84 -5z"/>
<path d="M3151 4144 c0 -11 3 -14 6 -6 3 7 2 16 -1 19 -3 4 -6 -2 -5 -13z"/>
<path d="M2295 4121 c-10 -18 15 -22 159 -25 79 -2 149 -6 154 -10 9 -6 39 21
31 28 -10 8 -338 15 -344 7z"/>
<path d="M1511 1814 c0 -11 3 -14 6 -6 3 7 2 16 -1 19 -3 4 -6 -2 -5 -13z"/>
<path d="M1543 1815 c0 -8 4 -15 9 -15 4 0 8 4 8 10 0 5 28 11 63 13 l62 3
-71 2 c-57 2 -71 -1 -71 -13z"/>
<path d="M7850 1815 c0 -9 -10 -20 -22 -25 -22 -8 -22 -9 -2 -9 13 -1 25 8 32
24 7 15 8 25 2 25 -6 0 -10 -7 -10 -15z"/>
<path d="M7885 1821 c-3 -5 -1 -12 5 -16 5 -3 10 1 10 9 0 18 -6 21 -15 7z"/>
<path d="M7660 1810 c-13 -8 -12 -10 3 -10 9 0 17 5 17 10 0 12 -1 12 -20 0z"/>
<path d="M758 1783 c-9 -2 -18 -16 -20 -31 -2 -15 -9 -28 -15 -28 -7 -1 -20
-2 -29 -3 -8 0 -12 -5 -9 -11 3 -5 2 -10 -4 -10 -5 0 -11 5 -13 12 -2 6 -10 8
-17 4 -9 -6 -9 -11 1 -24 10 -12 10 -14 1 -8 -7 4 -13 2 -13 -3 0 -6 12 -12
28 -12 l27 -1 -28 -7 c-26 -6 -27 -7 -13 -26 14 -18 15 -18 16 -2 0 15 7 17
40 13 45 -5 52 0 18 14 -21 8 -21 9 -3 9 26 0 53 -20 48 -36 -3 -7 0 -13 7
-13 6 0 8 5 5 10 -3 6 -2 10 4 10 6 0 8 6 5 14 -6 15 -54 31 -89 28 -18 -1
-19 0 -1 5 15 4 16 7 5 15 -11 8 -11 9 2 5 22 -7 39 11 39 40 0 13 5 23 11 23
6 0 8 -9 4 -20 -4 -14 -2 -20 9 -20 17 0 31 -34 20 -51 -12 -20 116 -6 131 14
7 9 17 17 24 17 6 0 11 11 11 25 0 14 -6 25 -12 25 -9 0 -8 4 2 10 8 5 42 10
75 10 33 0 67 -5 75 -10 11 -7 5 -10 -22 -10 -21 0 -38 -2 -38 -5 0 -8 66 -75
73 -75 3 0 8 8 10 18 4 16 5 16 6 0 1 -24 61 -26 61 -3 0 9 11 20 25 25 14 5
25 16 25 25 0 8 9 15 20 15 11 0 20 4 20 10 0 11 149 9 168 -3 6 -5 12 -4 12
1 0 6 -7 13 -16 16 -18 7 -660 6 -686 -1z"/>
<path d="M1480 1780 c0 -5 7 -7 15 -4 8 4 15 8 15 10 0 2 -7 4 -15 4 -8 0 -15
-4 -15 -10z"/>
<path d="M1573 1783 c15 -2 39 -2 55 0 15 2 2 4 -28 4 -30 0 -43 -2 -27 -4z"/>
<path d="M8003 1783 c9 -2 23 -2 30 0 6 3 -1 5 -18 5 -16 0 -22 -2 -12 -5z"/>
<path d="M8098 1783 c12 -2 32 -2 45 0 12 2 2 4 -23 4 -25 0 -35 -2 -22 -4z"/>
<path d="M8183 1783 c9 -2 23 -2 30 0 6 3 -1 5 -18 5 -16 0 -22 -2 -12 -5z"/>
<path d="M973 1763 c9 -2 23 -2 30 0 6 3 -1 5 -18 5 -16 0 -22 -2 -12 -5z"/>
<path d="M7858 1763 c7 -3 16 -2 19 1 4 3 -2 6 -13 5 -11 0 -14 -3 -6 -6z"/>
<path d="M8266 1738 c-14 -20 -14 -23 0 -31 10 -6 20 -5 27 2 17 17 27 13 27
-9 0 -17 -7 -20 -41 -20 -48 0 -44 -16 6 -26 45 -8 44 -18 -2 -31 -36 -10 -34
-10 32 -11 39 0 93 3 120 8 l50 7 -42 2 c-35 1 -43 4 -43 20 0 16 8 21 43 24
36 3 34 4 -16 5 -71 2 -68 22 4 22 65 0 63 18 -3 23 -40 3 -34 4 19 3 69 0
119 13 57 15 -29 1 -29 1 -4 9 16 5 -20 8 -97 9 -115 1 -123 0 -137 -21z"/>
<path d="M8568 1753 c6 -2 18 -2 25 0 6 3 1 5 -13 5 -14 0 -19 -2 -12 -5z"/>
<path d="M8698 1713 c6 -2 18 -2 25 0 6 3 1 5 -13 5 -14 0 -19 -2 -12 -5z"/>
<path d="M746 1701 c-3 -5 5 -11 19 -13 17 -4 25 -1 25 8 0 15 -36 19 -44 5z"/>
<path d="M8726 1701 c-19 -7 -19 -8 2 -13 12 -4 22 -2 22 4 0 6 6 8 13 5 6 -2
23 -8 37 -12 24 -7 24 -7 5 9 -22 17 -49 19 -79 7z"/>
<path d="M1440 1690 c0 -5 5 -10 11 -10 5 0 7 5 4 10 -3 6 -8 10 -11 10 -2 0
-4 -4 -4 -10z"/>
<path d="M1520 1690 c0 -5 5 -10 11 -10 5 0 7 5 4 10 -3 6 -8 10 -11 10 -2 0
-4 -4 -4 -10z"/>
<path d="M8120 1690 c0 -5 5 -10 11 -10 5 0 7 5 4 10 -3 6 -8 10 -11 10 -2 0
-4 -4 -4 -10z"/>
<path d="M473 1677 c-68 -9 -101 -27 -50 -27 12 0 40 -3 62 -6 28 -4 36 -3 26
4 -11 8 -7 11 19 14 18 2 35 9 38 16 2 6 -2 11 -10 11 -7 -1 -46 -6 -85 -12z"/>
<path d="M8838 1678 c9 -9 15 -9 24 0 9 9 7 12 -12 12 -19 0 -21 -3 -12 -12z"/>
<path d="M8648 1673 c6 -2 18 -2 25 0 6 3 1 5 -13 5 -14 0 -19 -2 -12 -5z"/>
<path d="M8910 1672 c0 -10 119 -27 128 -18 9 10 -1 13 -65 20 -37 4 -63 3
-63 -2z"/>
<path d="M1396 1661 c-18 -7 -18 -8 -2 -14 29 -11 46 -8 46 8 0 16 -14 18 -44
6z"/>
<path d="M8705 1660 l-30 -8 35 -1 c19 0 42 4 50 9 12 8 11 10 -5 9 -11 -1
-33 -5 -50 -9z"/>
<path d="M8775 1655 c-16 -8 -25 -15 -20 -15 6 -1 1 -5 -10 -10 -15 -6 -10 -7
19 -7 21 1 34 3 27 5 -6 2 -11 8 -11 14 0 6 7 7 16 4 9 -4 13 -2 8 5 -4 8 1 9
16 4 15 -5 20 -4 16 4 -9 14 -23 13 -61 -4z"/>
<path d="M910 1640 c0 -5 5 -10 10 -10 6 0 10 5 10 10 0 6 -4 10 -10 10 -5 0
-10 -4 -10 -10z"/>
<path d="M978 1643 c12 -2 32 -2 45 0 12 2 2 4 -23 4 -25 0 -35 -2 -22 -4z"/>
<path d="M1298 1643 c12 -2 32 -2 45 0 12 2 2 4 -23 4 -25 0 -35 -2 -22 -4z"/>
<path d="M8850 1640 c-8 -5 -10 -10 -5 -10 6 0 17 5 25 10 8 5 11 10 5 10 -5
0 -17 -5 -25 -10z"/>
<path d="M8903 1643 c9 -2 23 -2 30 0 6 3 -1 5 -18 5 -16 0 -22 -2 -12 -5z"/>
<path d="M8605 1630 c75 -12 123 -12 105 0 -8 5 -46 9 -85 9 l-70 -2 50 -7z"/>
<path d="M1410 1610 l-25 -8 28 -1 c15 -1 27 4 27 9 0 6 -1 10 -2 9 -2 -1 -14
-5 -28 -9z"/>
<path d="M978 1603 c12 -2 32 -2 45 0 12 2 2 4 -23 4 -25 0 -35 -2 -22 -4z"/>
<path d="M8639 1606 c-2 -3 -120 -6 -261 -7 -141 -2 -255 -6 -252 -10 2 -4 20
-7 40 -7 41 0 55 -9 34 -22 -12 -8 -11 -10 7 -10 16 0 20 5 16 20 -5 20 0 20
223 21 126 1 243 5 259 9 27 7 26 8 -16 9 -25 0 -48 -1 -50 -3z"/>
<path d="M825 1590 c-53 -6 -48 -7 38 -7 53 0 96 1 95 2 -10 8 -83 10 -133 5z"/>
<path d="M1470 1596 c0 -2 7 -7 16 -10 8 -3 12 -2 9 4 -6 10 -25 14 -25 6z"/>
<path d="M1015 1579 c55 -11 196 -10 170 1 -11 5 -63 8 -115 8 -76 0 -87 -2
-55 -9z"/>
<path d="M1360 1579 l-85 -6 90 0 c58 0 90 -4 93 -12 2 -6 8 -11 13 -11 12 0
0 28 -14 32 -7 2 -50 0 -97 -3z"/>
<path d="M1921 1563 c4 -23 -5 -28 -43 -26 -35 2 -38 1 -18 -6 41 -14 70 -13
70 4 0 8 5 15 11 15 5 0 7 5 4 10 -7 12 -26 14 -24 3z"/>
<path d="M8120 1566 c0 -9 39 -13 51 -5 10 6 4 9 -18 9 -18 0 -33 -2 -33 -4z"/>
<path d="M4773 1553 c20 -2 54 -2 75 0 20 2 3 4 -38 4 -41 0 -58 -2 -37 -4z"/>
<path d="M1548 1543 c7 -3 16 -2 19 1 4 3 -2 6 -13 5 -11 0 -14 -3 -6 -6z"/>
<path d="M7895 1540 l-210 -6 205 -2 c119 -1 211 2 220 8 8 5 11 9 5 8 -5 -1
-104 -5 -220 -8z"/>
<path d="M1648 1523 c6 -2 18 -2 25 0 6 3 1 5 -13 5 -14 0 -19 -2 -12 -5z"/>
<path d="M6328 1503 c7 -3 16 -2 19 1 4 3 -2 6 -13 5 -11 0 -14 -3 -6 -6z"/>
<path d="M6368 1503 c7 -3 16 -2 19 1 4 3 -2 6 -13 5 -11 0 -14 -3 -6 -6z"/>
<path d="M6032 1473 c48 -2 129 -2 180 0 51 1 12 3 -87 3 -99 0 -141 -2 -93
-3z"/>
<path d="M5868 1463 c7 -3 16 -2 19 1 4 3 -2 6 -13 5 -11 0 -14 -3 -6 -6z"/>
<path d="M3178 1423 c7 -3 16 -2 19 1 4 3 -2 6 -13 5 -11 0 -14 -3 -6 -6z"/>
<path d="M3138 1413 c7 -3 16 -2 19 1 4 3 -2 6 -13 5 -11 0 -14 -3 -6 -6z"/>
<path d="M4178 1373 c12 -2 30 -2 40 0 9 3 -1 5 -23 4 -22 0 -30 -2 -17 -4z"/>
<path d="M4497 1373 c145 -2 381 -2 525 0 145 1 27 2 -262 2 -289 0 -407 -1
-263 -2z"/>
<path d="M5298 1373 c6 -2 18 -2 25 0 6 3 1 5 -13 5 -14 0 -19 -2 -12 -5z"/>
</g>
</svg>
